<svg id="visual" viewBox="0 0 960 540" width="960" height="540" xmlns="http://www.w3.org/2000/svg" xmlns:xlink="http://www.w3.org/1999/xlink" version="1.1"><rect x="0" y="0" width="960" height="540" fill="#080a0c"></rect><path d="M0 149L32 154.7C64 160.3 128 171.7 192 165C256 158.3 320 133.7 384 124.3C448 115 512 121 576 130.7C640 140.3 704 153.7 768 152.7C832 151.7 896 136.3 928 128.7L960 121L960 0L928 0C896 0 832 0 768 0C704 0 640 0 576 0C512 0 448 0 384 0C320 0 256 0 192 0C128 0 64 0 32 0L0 0Z" fill="#715df2"></path><path d="M0 92L32 96.8C64 101.7 128 111.3 192 110.8C256 110.3 320 99.7 384 93.8C448 88 512 87 576 87.8C640 88.7 704 91.3 768 101.8C832 112.3 896 130.7 928 139.8L960 149L960 0L928 0C896 0 832 0 768 0C704 0 640 0 576 0C512 0 448 0 384 0C320 0 256 0 192 0C128 0 64 0 32 0L0 0Z" fill="#6c50f6"></path><path d="M0 129L32 118.2C64 107.3 128 85.7 192 80.3C256 75 320 86 384 95C448 104 512 111 576 118.2C640 125.3 704 132.7 768 134.3C832 136 896 132 928 130L960 128L960 0L928 0C896 0 832 0 768 0C704 0 640 0 576 0C512 0 448 0 384 0C320 0 256 0 192 0C128 0 64 0 32 0L0 0Z" fill="#6940fa"></path><path d="M0 59L32 62C64 65 128 71 192 75.5C256 80 320 83 384 80.8C448 78.7 512 71.3 576 69.3C640 67.3 704 70.7 768 73.3C832 76 896 78 928 79L960 80L960 0L928 0C896 0 832 0 768 0C704 0 640 0 576 0C512 0 448 0 384 0C320 0 256 0 192 0C128 0 64 0 32 0L0 0Z" fill="#672bfd"></path><path d="M0 28L32 33.3C64 38.7 128 49.3 192 55.7C256 62 320 64 384 58.7C448 53.3 512 40.7 576 39.2C640 37.7 704 47.3 768 53.5C832 59.7 896 62.3 928 63.7L960 65L960 0L928 0C896 0 832 0 768 0C704 0 640 0 576 0C512 0 448 0 384 0C320 0 256 0 192 0C128 0 64 0 32 0L0 0Z" fill="#6600ff"></path></svg>