<svg id="visual" viewBox="0 0 960 540" width="960" height="540" xmlns="http://www.w3.org/2000/svg" xmlns:xlink="http://www.w3.org/1999/xlink" version="1.1"><rect x="0" y="0" width="960" height="540" fill="#F9F9F9"></rect><path d="M0 199L14.5 221.7C29 244.3 58 289.7 87.2 296.7C116.3 303.7 145.7 272.3 174.8 248.5C204 224.7 233 208.3 262 212.2C291 216 320 240 349 276.3C378 312.7 407 361.3 436.2 349.2C465.3 337 494.7 264 523.8 266.7C553 269.3 582 347.7 611 346.7C640 345.7 669 265.3 698 264.3C727 263.3 756 341.7 785.2 351.2C814.3 360.7 843.7 301.3 872.8 295.7C902 290 931 338 945.5 362L960 386L960 0L945.5 0C931 0 902 0 872.8 0C843.7 0 814.3 0 785.2 0C756 0 727 0 698 0C669 0 640 0 611 0C582 0 553 0 523.8 0C494.7 0 465.3 0 436.2 0C407 0 378 0 349 0C320 0 291 0 262 0C233 0 204 0 174.8 0C145.7 0 116.3 0 87.2 0C58 0 29 0 14.5 0L0 0Z" fill="#080a0c" stroke-linecap="round" stroke-linejoin="miter"></path></svg>