<svg id="visual" viewBox="0 0 900 600" width="900" height="600" xmlns="http://www.w3.org/2000/svg" xmlns:xlink="http://www.w3.org/1999/xlink" version="1.1"><rect x="0" y="0" width="900" height="600" fill="#080a0c"></rect><path d="M0 77L16.7 76.2C33.3 75.3 66.7 73.7 100 79.7C133.3 85.7 166.7 99.3 200 97.8C233.3 96.3 266.7 79.7 300 70C333.3 60.3 366.7 57.7 400 68.3C433.3 79 466.7 103 500 105.5C533.3 108 566.7 89 600 81.5C633.3 74 666.7 78 700 83.7C733.3 89.3 766.7 96.7 800 96.7C833.3 96.7 866.7 89.3 883.3 85.7L900 82L900 0L883.3 0C866.7 0 833.3 0 800 0C766.7 0 733.3 0 700 0C666.7 0 633.3 0 600 0C566.7 0 533.3 0 500 0C466.7 0 433.3 0 400 0C366.7 0 333.3 0 300 0C266.7 0 233.3 0 200 0C166.7 0 133.3 0 100 0C66.7 0 33.3 0 16.7 0L0 0Z" fill="#F9F9F9" stroke-linecap="round" stroke-linejoin="miter"></path></svg>